<?xml version="1.0" encoding="UTF-8" standalone="no"?>
<svg
   height="48"
   width="48"
   version="1.1"
   id="svg4"
   sodipodi:docname="icon-logo2.svg"
   inkscape:version="1.1.2 (0a00cf5339, 2022-02-04)"
   xmlns:inkscape="http://www.inkscape.org/namespaces/inkscape"
   xmlns:sodipodi="http://sodipodi.sourceforge.net/DTD/sodipodi-0.dtd"
   xmlns="http://www.w3.org/2000/svg"
   xmlns:svg="http://www.w3.org/2000/svg">
  <defs
     id="defs8" />
  <sodipodi:namedview
     id="namedview6"
     pagecolor="#ffffff"
     bordercolor="#666666"
     borderopacity="1.0"
     inkscape:pageshadow="2"
     inkscape:pageopacity="0.0"
     inkscape:pagecheckerboard="0"
     showgrid="false"
     showguides="true"
     inkscape:guide-bbox="true"
     inkscape:zoom="4.2708333"
     inkscape:cx="-43.551219"
     inkscape:cy="24"
     inkscape:window-width="1846"
     inkscape:window-height="1009"
     inkscape:window-x="74"
     inkscape:window-y="34"
     inkscape:window-maximized="1"
     inkscape:current-layer="svg4" />
  <path
     d="m 11.069007,51.128804 q -1.3,0 -2.15,-0.85 -0.85,-0.85 -0.85,-2.15 0,-0.9 0.45,-1.725 0.45,-0.825 1.3,-1.175 l 8.6,-3.4 v -6.9 q -3.3,4.05 -6.7,6.1 -3.4,2.05 -7.7,2.05 v -3 q 3.4,0 6.2,-1.575 2.8,-1.575 5.05,-4.425 l 2.9,-3.25 q 0.5,-0.6 1.175,-1 0.675,-0.4 1.475,-0.4 h 2.4 q 0.8,0 1.5,0.4 0.7,0.4 1.2,1 l 2.9,3.25 q 2.4,2.75 5.1,4.375 2.7,1.625 6.1,1.625 v 3 q -4.25,0 -7.675,-2.05 -3.425,-2.05 -6.725,-6.1 v 6.9 l 8.6,3.4 q 0.85,0.35 1.3,1.175 0.45,0.825 0.45,1.725 0,1.3 -0.85,2.15 -0.85,0.85 -2.15,0.85 h -15.15 v -0.55 q 0,-1.3 0.8,-2.1 0.8,-0.8 2.1,-0.8 h 6.65 q 0.4,0 0.7,-0.3 0.3,-0.3 0.3,-0.7 0,-0.4 -0.3,-0.7 -0.3,-0.3 -0.7,-0.3 h -6.65 q -2.2,0 -3.5,1.35 -1.3,1.35 -1.3,3.55 v 0.55 z m 10.95,-24.7 q -1.5,0 -2.575,-1.075 -1.075,-1.075 -1.075,-2.575 0,-1.5 1.075,-2.575 1.075,-1.075 2.575,-1.075 1.5,0 2.575,1.075 1.075,1.075 1.075,2.575 0,1.5 -1.075,2.575 -1.075,1.075 -2.575,1.075 z"
     id="path2"
     style="fill:#800000" />
  <path
     d="m 142.34515,4.3497855 h 0.86739 l 8.73295,-8.732952 -0.86738,-0.867382 -8.73296,8.732953 z m 12.10392,-9.580621 -2.5233,-2.523291 0.82796,-0.827955 q 0.33512,-0.335124 0.82795,-0.335124 0.49283,0 0.82796,0.335124 l 0.86738,0.867382 q 0.33513,0.335124 0.33513,0.827955 0,0.49283 -0.33513,0.827955 z m -0.82796,0.827955 -9.93546,9.935459 h -2.52329 v -2.523291 l 9.93546,-9.935459 z m -2.10931,-0.413977 -0.43369,-0.433691 0.86738,0.867382 z"
     id="path64"
     style="stroke-width:0.394264" />
  <path
     d="M 31.337788,67.569334 H 1.0740891 q -2.8937404,0 -5.0640454,-2.170306 -2.1703051,-2.170304 -2.1703051,-5.064044 V -9.838212 q 0,-2.893741 1.8688738,-5.064045 1.8688737,-2.170305 3.1951712,-2.170305 H 23.259431 q 0.844007,-4.220038 4.159751,-6.93292 3.315743,-2.712881 7.656354,-2.712881 4.34061,0 7.656352,2.712881 3.315744,2.712882 4.159751,6.93292 h 24.355645 q 2.893739,0 5.064045,2.170305 2.170308,2.170304 2.170308,5.064045 V 14.638005 H 71.247284 V -9.838212 H 58.4666 V 5.8362133 H 13.854773 V -9.838212 H 1.0740891 V 60.334984 H 31.337788 Z m 22.788204,-3.014313 -19.291602,-19.2916 5.184617,-5.184617 14.106985,14.106982 28.816823,-28.816827 5.184621,5.184617 z M 37.24584,-10.320502 q 2.049733,0 3.436316,-1.386583 1.386584,-1.386585 1.386584,-3.436317 0,-2.049733 -1.386584,-3.436317 -1.386583,-1.386583 -3.436316,-1.386583 -2.049733,0 -3.436317,1.386583 -1.386584,1.386584 -1.386584,3.436317 0,2.049732 1.386584,3.436317 1.386584,1.386583 3.436317,1.386583 z"
     id="path113"
     style="stroke-width:2.41145;fill:#800000"
     inkscape:export-filename="/mnt/Data/git/paauk_tracker/assets/icon3.png"
     inkscape:export-xdpi="96"
     inkscape:export-ydpi="96" />
  <rect
     style="fill:#800000;stroke-width:0.413608"
     id="rect198-2"
     width="1.750574"
     height="2.9730835"
     x="20.843527"
     y="8.8860941" />
  <rect
     style="fill:#800000"
     id="rect526"
     width="2.4847703"
     height="9.9390812"
     x="-63.427906"
     y="-16.54936" />
  <rect
     style="fill:#800000;stroke-width:0.731842"
     id="rect526-1"
     width="1.8184587"
     height="7.2738347"
     x="1.6463038"
     y="15.376479"
     transform="rotate(-45)" />
  <rect
     style="fill:#800000;stroke-width:0.731842"
     id="rect526-7"
     width="1.8184587"
     height="7.2738347"
     x="27.696646"
     y="-15.784929"
     transform="rotate(45)" />
</svg>
