<?xml version="1.0" encoding="UTF-8" standalone="no"?>
<svg
   height="500"
   width="500"
   version="1.1"
   id="svg4"
   sodipodi:docname="icon-logo2.svg"
   inkscape:version="1.1.2 (0a00cf5339, 2022-02-04)"
   inkscape:export-filename="/mnt/Data/git/paauk_tracker/assets/icon.png"
   inkscape:export-xdpi="96"
   inkscape:export-ydpi="96"
   xmlns:inkscape="http://www.inkscape.org/namespaces/inkscape"
   xmlns:sodipodi="http://sodipodi.sourceforge.net/DTD/sodipodi-0.dtd"
   xmlns="http://www.w3.org/2000/svg"
   xmlns:svg="http://www.w3.org/2000/svg">
  <defs
     id="defs8">
    <clipPath
       clipPathUnits="userSpaceOnUse"
       id="clipPath430">
      <ellipse
         style="fill:#0000ff;stroke-width:5.61682"
         id="ellipse432"
         cx="229.90953"
         cy="279.84735"
         rx="264.07898"
         ry="270.39093" />
    </clipPath>
  </defs>
  <sodipodi:namedview
     id="namedview6"
     pagecolor="#ffffff"
     bordercolor="#666666"
     borderopacity="1.0"
     inkscape:pageshadow="2"
     inkscape:pageopacity="0.0"
     inkscape:pagecheckerboard="0"
     showgrid="false"
     showguides="true"
     inkscape:guide-bbox="true"
     inkscape:zoom="0.3774919"
     inkscape:cx="68.87565"
     inkscape:cy="705.97541"
     inkscape:window-width="1846"
     inkscape:window-height="1009"
     inkscape:window-x="74"
     inkscape:window-y="34"
     inkscape:window-maximized="1"
     inkscape:current-layer="svg4">
    <sodipodi:guide
       position="249.01197,129.13111"
       orientation="1,0"
       id="guide312" />
    <sodipodi:guide
       position="182.78538,250.98803"
       orientation="0,-1"
       id="guide314" />
  </sodipodi:namedview>
  <rect
     style="fill:#ffffff;stroke-width:5.07915"
     id="rect230"
     width="594.14948"
     height="593.55109"
     x="-59.313702"
     y="-12.247556" />
  <path
     d="m 92.73134,430.52009 q -7.0178,0 -11.60634,-4.5886 -4.58855,-4.5885 -4.58855,-11.6063 0,-4.8585 2.42923,-9.3121 2.42924,-4.4536 7.01779,-6.343 l 46.42533,-18.3542 v -37.2482 q -17.81437,21.8631 -36.16858,32.9296 -18.35421,11.0665 -41.56687,11.0665 v -16.1949 q 18.35421,0 33.46943,-8.5023 15.11522,-8.5023 27.26138,-23.8875 l 15.65507,-17.5444 q 2.69915,-3.239 6.343,-5.3983 3.64384,-2.1593 7.96249,-2.1593 h 12.95589 q 4.31864,0 8.09745,2.1593 3.77881,2.1593 6.47796,5.3983 l 15.65506,17.5444 q 12.9559,14.8453 27.5313,23.6176 14.5754,8.7722 32.92959,8.7722 v 16.1949 q -22.94275,0 -41.43191,-11.0665 -18.48916,-11.0665 -36.30353,-32.9296 v 37.2482 l 46.42533,18.3542 q 4.58856,1.8894 7.0178,6.343 2.42921,4.4536 2.42921,9.3121 0,7.0178 -4.58854,11.6063 -4.58856,4.5886 -11.60633,4.5886 h -81.78417 v -2.9691 q 0,-7.0178 4.31864,-11.3364 4.31862,-4.3186 11.33641,-4.3186 h 35.89866 q 2.15932,0 3.77882,-1.6195 1.61948,-1.6195 1.61948,-3.7788 0,-2.1594 -1.61948,-3.7789 -1.6195,-1.6194 -3.77882,-1.6194 h -35.89866 q -11.87624,0 -18.89404,7.2877 -7.01777,7.2876 -7.01777,19.1639 v 2.9691 z m 59.11132,-133.3379 q -8.09745,0 -13.9006,-5.8032 -5.80317,-5.8032 -5.80317,-13.9006 0,-8.0974 5.80317,-13.9006 5.80315,-5.8032 13.9006,-5.8032 8.09744,0 13.90062,5.8032 5.80316,5.8032 5.80316,13.9006 0,8.0974 -5.80316,13.9006 -5.80318,5.8032 -13.90062,5.8032 z"
     id="path2"
     style="fill:#800000;stroke-width:5.3983" />
  <path
     d="m 801.39867,177.9931 h 4.68244 l 47.14301,-47.14304 -4.6823,-4.68236 -47.14315,47.14303 z m 65.3406,-51.71902 -13.62163,-13.62145 4.46961,-4.46951 q 1.80912,-1.80914 4.46959,-1.80914 2.66033,0 4.46947,1.80914 l 4.68242,4.68236 q 1.80914,1.80909 1.80914,4.46952 0,2.66045 -1.80914,4.46956 z m -4.4696,4.46958 -53.63457,53.63455 h -13.62146 v -13.62146 l 53.63453,-53.63455 z m -11.38669,-2.23479 -2.34116,-2.34117 4.6823,4.68236 z"
     id="path64"
     style="stroke-width:2.12836" />
  <path
     d="M 202.14819,519.27089 H 38.77582 q -15.621263,0 -27.337241,-11.7159 -11.715925,-11.716 -11.715925,-27.3373 V 101.40216 q 0,-15.62126 10.088721,-27.33724 Q 19.900137,62.34899 27.05984,62.34899 h 131.47897 q 4.55623,-22.78102 22.45557,-37.42595 17.89933,-14.64493 41.33129,-14.64493 23.43189,0 41.33124,14.64493 17.89934,14.64493 22.45555,37.42595 h 131.47892 q 15.62127,0 27.33725,11.71593 11.71598,11.71598 11.71598,27.33724 V 233.53199 H 417.59138 V 101.40216 H 348.59751 V 186.0173 H 107.76968 V 101.40216 H 38.77582 v 378.81553 h 163.37237 z m 123.01744,-16.2721 -104.14177,-104.1418 27.98811,-27.9881 76.15366,76.1537 155.56169,-155.5618 27.98816,27.9881 z M 234.04158,98.79861 q 11.06506,0 18.55028,-7.48523 7.48516,-7.48517 7.48516,-18.55021 0,-11.0651 -7.48516,-18.55027 -7.48522,-7.48518 -18.55028,-7.48518 -11.06504,0 -18.55026,7.48518 -7.48517,7.48517 -7.48517,18.55027 0,11.06504 7.48517,18.55021 7.48522,7.48523 18.55026,7.48523 z"
     id="path113"
     style="fill:#800000;stroke-width:13.0177"
     inkscape:export-filename="/mnt/Data/git/paauk_tracker/assets/icon3.png"
     inkscape:export-xdpi="96"
     inkscape:export-ydpi="96"
     clip-path="url(#clipPath430)" />
  <rect
     style="fill:#800000;stroke-width:2.23277"
     id="rect198-2"
     width="9.4501152"
     height="16.049582"
     x="145.49706"
     y="202.48138" />
  <rect
     style="fill:#800000;stroke-width:5.3983"
     id="rect526"
     width="13.413524"
     height="53.654095"
     x="-309.42499"
     y="65.173401" />
  <rect
     style="fill:#800000;stroke-width:3.9507"
     id="rect526-1"
     width="9.816576"
     height="39.266304"
     x="-77.050392"
     y="215.58171"
     transform="rotate(-45)" />
  <rect
     style="fill:#800000;stroke-width:3.9507"
     id="rect526-7"
     width="9.816576"
     height="39.266304"
     x="282.08957"
     y="0.72592962"
     transform="rotate(45)" />
  <rect
     style="fill:#ffffff;stroke-width:5.07915"
     id="rect230-7"
     width="594.14948"
     height="593.55109"
     x="-515.9483"
     y="1139.0168" />
  <path
     d="m -363.90329,1581.7845 q -7.0178,0 -11.60634,-4.5886 -4.58855,-4.5885 -4.58855,-11.6063 0,-4.8585 2.42923,-9.3121 2.42924,-4.4536 7.01779,-6.343 l 46.42533,-18.3542 v -37.2482 q -17.81437,21.8631 -36.16858,32.9296 -18.35421,11.0665 -41.56687,11.0665 v -16.1949 q 18.35421,0 33.46943,-8.5023 15.11522,-8.5023 27.26138,-23.8875 l 15.65507,-17.5444 q 2.69915,-3.239 6.343,-5.3983 3.64384,-2.1593 7.96249,-2.1593 h 12.95589 q 4.31864,0 8.09745,2.1593 3.77881,2.1593 6.47796,5.3983 l 15.65506,17.5444 q 12.9559,14.8453 27.5313,23.6176 14.5754,8.7722 32.92959,8.7722 v 16.1949 q -22.94275,0 -41.43191,-11.0665 -18.48916,-11.0665 -36.30353,-32.9296 v 37.2482 l 46.42533,18.3542 q 4.58856,1.8894 7.0178,6.343 2.42921,4.4536 2.42921,9.3121 0,7.0178 -4.58854,11.6063 -4.58856,4.5886 -11.60633,4.5886 h -81.78417 v -2.9691 q 0,-7.0178 4.31864,-11.3364 4.31862,-4.3186 11.33641,-4.3186 h 35.89866 q 2.15932,0 3.77882,-1.6195 1.61948,-1.6195 1.61948,-3.7788 0,-2.1594 -1.61948,-3.7789 -1.6195,-1.6194 -3.77882,-1.6194 h -35.89866 q -11.87624,0 -18.89404,7.2877 -7.01777,7.2876 -7.01777,19.1639 v 2.9691 z m 59.11132,-133.3379 q -8.09745,0 -13.9006,-5.8032 -5.80317,-5.8032 -5.80317,-13.9006 0,-8.0974 5.80317,-13.9006 5.80315,-5.8032 13.9006,-5.8032 8.09744,0 13.90062,5.8032 5.80316,5.8032 5.80316,13.9006 0,8.0974 -5.80316,13.9006 -5.80318,5.8032 -13.90062,5.8032 z"
     id="path2-5"
     style="fill:#800000;stroke-width:5.3983" />
  <path
     d="m 344.76404,1329.2575 h 4.68244 l 47.14301,-47.143 -4.6823,-4.6824 -47.14315,47.143 z m 65.3406,-51.719 -13.62163,-13.6215 4.46961,-4.4695 q 1.80912,-1.8091 4.46959,-1.8091 2.66033,0 4.46947,1.8091 l 4.68242,4.6824 q 1.80914,1.8091 1.80914,4.4695 0,2.6605 -1.80914,4.4696 z m -4.4696,4.4696 -53.63457,53.6345 h -13.62146 v -13.6214 l 53.63453,-53.6346 z m -11.38669,-2.2348 -2.34116,-2.3412 4.6823,4.6824 z"
     id="path64-9"
     style="stroke-width:2.12836" />
  <path
     d="m -254.48644,1670.5353 h -163.37237 q -15.62126,0 -27.33724,-11.7159 -11.71593,-11.716 -11.71593,-27.3373 v -378.8155 q 0,-15.6213 10.08872,-27.3373 10.08877,-11.7159 17.24847,-11.7159 h 131.47897 q 4.55623,-22.781 22.45557,-37.426 17.89933,-14.6449 41.33129,-14.6449 23.43189,0 41.33124,14.6449 17.89934,14.645 22.45555,37.426 h 131.47892 q 15.62127,0 27.33725,11.7159 11.71598,11.716 11.71598,27.3373 v 132.1298 h -39.05323 v -132.1298 h -68.99387 v 84.6151 h -240.82783 v -84.6151 h -68.99386 v 378.8155 h 163.37237 z m 123.01744,-16.2721 -104.14177,-104.1418 27.98811,-27.9881 76.15366,76.1537 155.56169,-155.5618 27.98816,27.9881 z m -91.12405,-404.2002 q 11.06506,0 18.55028,-7.4852 7.48516,-7.4852 7.48516,-18.5502 0,-11.0651 -7.48516,-18.5503 -7.48522,-7.4852 -18.55028,-7.4852 -11.06504,0 -18.55026,7.4852 -7.48517,7.4852 -7.48517,18.5503 0,11.065 7.48517,18.5502 7.48522,7.4852 18.55026,7.4852 z"
     id="path113-6"
     style="fill:#800000;stroke-width:13.0177"
     inkscape:export-filename="/mnt/Data/git/paauk_tracker/assets/icon3.png"
     inkscape:export-xdpi="96"
     inkscape:export-ydpi="96" />
  <rect
     style="fill:#800000;stroke-width:2.23277"
     id="rect198-2-2"
     width="9.4501152"
     height="16.049582"
     x="-311.13757"
     y="1353.7457" />
  <rect
     style="fill:#800000;stroke-width:5.3983"
     id="rect526-17"
     width="13.413524"
     height="53.654095"
     x="-766.05963"
     y="1216.4377" />
  <rect
     style="fill:#800000;stroke-width:3.9507"
     id="rect526-1-8"
     width="9.816576"
     height="39.266304"
     x="-1214.0067"
     y="706.75909"
     transform="rotate(-45)" />
  <rect
     style="fill:#800000;stroke-width:3.9507"
     id="rect526-7-5"
     width="9.816576"
     height="39.266304"
     x="773.26697"
     y="1137.6823"
     transform="rotate(45)" />
  <ellipse
     style="fill:#0000ff;stroke-width:5.61682"
     id="path34-7"
     cx="-226.7251"
     cy="1431.1117"
     rx="264.07898"
     ry="270.39093" />
</svg>
